# xmcd
#
# Track frame offsets:
#	150
#	2062
#	12412
#	21397
#	33570
#	44295
#	54641
#	66183
#	83283
#	90986
#	103128
#	110388
#	113013
#	123588
#	136098
#	146208
#	156393
#	167643
#	177881
#	191906
#	201281
#	210093
#
# Disc length: 2850 seconds
#
# Revision: 0
# Processed by: cddbd v1.5.2PL0 Copyright (c) Steve Scherf et al.
# Submitted via: EZCDAudioConverter 2.1.5.1
#
DISCID=2b0b2016
DTITLE=Various Artist - 18 WHEELERS
DYEAR=2015
DGENRE=Country
TTITLE0=CB INTRO 1
TTITLE1=BILL WOODS - TRUCK DRIVING MAN
TTITLE2=BILLY DEATON - SIX CENTS A MILE
TTITLE3=BENNY BARNES - DIESEL SMOKE
TTITLE4=HAROLD CROSBY - BIG BIG TRUCK 
TTITLE5=GENE SATTERFIELD - DOUBLE CLUTCHIN MAN
TTITLE6=TRUMAN LANKFORD - FREIGHT LINER FEVER
TTITLE7=STAN FARLOW - HOT WHEELS
TTITLE8=SIR CALVIN COOLIDGE - BIG DIESEL MAN
TTITLE9=TERRY FELL - COFFEE JIM THE TRUCKER
TTITLE10=CB OUTRO 1
TTITLE11=CB INTRO 2
TTITLE12=D HOWELL - TRUCK DRIVING JACK
TTITLE13=RAY SALTER - TRUCK DRIVER'S DREAM
TTITLE14=CLAUD ALLEN - BIG WHEELS
TTITLE15=AUTRY INMAN - BIG SAM
TTITLE16=LONNIE IRVING - TRUCKERS VITUS
TTITLE17=BOBBY EDISON - TRUCK DRIVER'S LIFE
TTITLE18=RED SIMPSON - I'M A TRUCK
TTITLE19=BOBBY BRADDOCK - GEAR BUSTIN SORT OF A FELLER
TTITLE20=DICK MOSELY - TRUCK STOP NUMBER THREE
TTITLE21=CB TALK OUTRO
EXTD=
EXTT0=
EXTT1=
EXTT2=
EXTT3=
EXTT4=
EXTT5=
EXTT6=
EXTT7=
EXTT8=
EXTT9=
EXTT10=
EXTT11=
EXTT12=
EXTT13=
EXTT14=
EXTT15=
EXTT16=
EXTT17=
EXTT18=
EXTT19=
EXTT20=
EXTT21=
PLAYORDER=
